<mxfile host="Electron" agent="Mozilla/5.0 (Macintosh; Intel Mac OS X 10_15_7) AppleWebKit/537.36 (KHTML, like Gecko) draw.io/26.0.9 Chrome/128.0.6613.186 Electron/32.2.5 Safari/537.36" version="26.0.9">
  <diagram name="Page-1" id="2E6F8lscwxy-GNB2ooGR">
    <mxGraphModel dx="1434" dy="907" grid="1" gridSize="10" guides="1" tooltips="1" connect="1" arrows="1" fold="1" page="1" pageScale="1" pageWidth="850" pageHeight="1100" math="0" shadow="0">
      <root>
        <mxCell id="0" />
        <mxCell id="1" parent="0" />
        <mxCell id="EwoiM0SO4o2tvxt3Q_M0-30" value="API" style="rounded=0;whiteSpace=wrap;html=1;verticalAlign=bottom;" parent="1" vertex="1">
          <mxGeometry x="570" y="360" width="240" height="220" as="geometry" />
        </mxCell>
        <mxCell id="EwoiM0SO4o2tvxt3Q_M0-7" style="edgeStyle=orthogonalEdgeStyle;rounded=0;orthogonalLoop=1;jettySize=auto;html=1;" parent="1" source="EwoiM0SO4o2tvxt3Q_M0-2" target="EwoiM0SO4o2tvxt3Q_M0-4" edge="1">
          <mxGeometry relative="1" as="geometry" />
        </mxCell>
        <mxCell id="EwoiM0SO4o2tvxt3Q_M0-2" value="Cliente via Zappa" style="shape=umlActor;verticalLabelPosition=bottom;verticalAlign=top;html=1;outlineConnect=0;" parent="1" vertex="1">
          <mxGeometry x="80" y="110" width="30" height="60" as="geometry" />
        </mxCell>
        <mxCell id="EwoiM0SO4o2tvxt3Q_M0-24" style="edgeStyle=orthogonalEdgeStyle;rounded=0;orthogonalLoop=1;jettySize=auto;html=1;" parent="1" source="EwoiM0SO4o2tvxt3Q_M0-3" target="EwoiM0SO4o2tvxt3Q_M0-23" edge="1">
          <mxGeometry relative="1" as="geometry">
            <Array as="points">
              <mxPoint x="350" y="630" />
              <mxPoint x="350" y="630" />
            </Array>
          </mxGeometry>
        </mxCell>
        <mxCell id="EwoiM0SO4o2tvxt3Q_M0-25" value="Efetuou compra&lt;br&gt;(via API se cria o pedido)" style="edgeLabel;html=1;align=center;verticalAlign=middle;resizable=0;points=[];" parent="EwoiM0SO4o2tvxt3Q_M0-24" vertex="1" connectable="0">
          <mxGeometry x="-0.1313" y="-3" relative="1" as="geometry">
            <mxPoint as="offset" />
          </mxGeometry>
        </mxCell>
        <mxCell id="EwoiM0SO4o2tvxt3Q_M0-3" value="Catálogo + Carrinho&lt;br&gt;FRONT" style="rounded=0;whiteSpace=wrap;html=1;" parent="1" vertex="1">
          <mxGeometry x="180" y="330" width="340" height="70" as="geometry" />
        </mxCell>
        <mxCell id="EwoiM0SO4o2tvxt3Q_M0-4" value="Zappa" style="dashed=0;outlineConnect=0;html=1;align=center;labelPosition=center;verticalLabelPosition=bottom;verticalAlign=top;shape=mxgraph.webicons.whatsapp;fillColor=#4FE238;gradientColor=#138709" parent="1" vertex="1">
          <mxGeometry x="244" y="110" width="60" height="60" as="geometry" />
        </mxCell>
        <mxCell id="EwoiM0SO4o2tvxt3Q_M0-5" value="Cliente via link" style="shape=umlActor;verticalLabelPosition=bottom;verticalAlign=top;html=1;outlineConnect=0;" parent="1" vertex="1">
          <mxGeometry x="610" y="110" width="30" height="60" as="geometry" />
        </mxCell>
        <mxCell id="EwoiM0SO4o2tvxt3Q_M0-9" style="edgeStyle=orthogonalEdgeStyle;rounded=0;orthogonalLoop=1;jettySize=auto;html=1;entryX=0.703;entryY=0.014;entryDx=0;entryDy=0;entryPerimeter=0;" parent="1" source="EwoiM0SO4o2tvxt3Q_M0-5" target="EwoiM0SO4o2tvxt3Q_M0-3" edge="1">
          <mxGeometry relative="1" as="geometry" />
        </mxCell>
        <mxCell id="EwoiM0SO4o2tvxt3Q_M0-17" style="edgeStyle=orthogonalEdgeStyle;rounded=0;orthogonalLoop=1;jettySize=auto;html=1;entryX=0.278;entryY=-0.007;entryDx=0;entryDy=0;entryPerimeter=0;" parent="1" source="EwoiM0SO4o2tvxt3Q_M0-4" target="EwoiM0SO4o2tvxt3Q_M0-3" edge="1">
          <mxGeometry relative="1" as="geometry" />
        </mxCell>
        <mxCell id="EwoiM0SO4o2tvxt3Q_M0-18" value="Redis" style="shape=cylinder3;whiteSpace=wrap;html=1;boundedLbl=1;backgroundOutline=1;size=15;" parent="1" vertex="1">
          <mxGeometry x="600" y="450" width="60" height="80" as="geometry" />
        </mxCell>
        <mxCell id="EwoiM0SO4o2tvxt3Q_M0-19" value="Mongo DB" style="shape=cylinder3;whiteSpace=wrap;html=1;boundedLbl=1;backgroundOutline=1;size=15;" parent="1" vertex="1">
          <mxGeometry x="725" y="460" width="60" height="80" as="geometry" />
        </mxCell>
        <mxCell id="EwoiM0SO4o2tvxt3Q_M0-20" value="" style="endArrow=classic;html=1;rounded=0;" parent="1" source="EwoiM0SO4o2tvxt3Q_M0-3" target="EwoiM0SO4o2tvxt3Q_M0-18" edge="1">
          <mxGeometry width="50" height="50" relative="1" as="geometry">
            <mxPoint x="380" y="530" as="sourcePoint" />
            <mxPoint x="430" y="480" as="targetPoint" />
          </mxGeometry>
        </mxCell>
        <mxCell id="0uHbyGpPH49AZoz-uMiK-1" value="MÉTRICAS&lt;br&gt;E&lt;br&gt;DADOS CARRINHO" style="edgeLabel;html=1;align=center;verticalAlign=middle;resizable=0;points=[];" vertex="1" connectable="0" parent="EwoiM0SO4o2tvxt3Q_M0-20">
          <mxGeometry x="-0.1978" y="2" relative="1" as="geometry">
            <mxPoint as="offset" />
          </mxGeometry>
        </mxCell>
        <mxCell id="EwoiM0SO4o2tvxt3Q_M0-21" value="" style="endArrow=classic;startArrow=classic;html=1;rounded=0;" parent="1" source="EwoiM0SO4o2tvxt3Q_M0-18" target="EwoiM0SO4o2tvxt3Q_M0-19" edge="1">
          <mxGeometry width="50" height="50" relative="1" as="geometry">
            <mxPoint x="380" y="530" as="sourcePoint" />
            <mxPoint x="430" y="480" as="targetPoint" />
          </mxGeometry>
        </mxCell>
        <mxCell id="EwoiM0SO4o2tvxt3Q_M0-28" style="edgeStyle=orthogonalEdgeStyle;rounded=0;orthogonalLoop=1;jettySize=auto;html=1;" parent="1" source="EwoiM0SO4o2tvxt3Q_M0-23" target="EwoiM0SO4o2tvxt3Q_M0-26" edge="1">
          <mxGeometry relative="1" as="geometry" />
        </mxCell>
        <mxCell id="EwoiM0SO4o2tvxt3Q_M0-32" style="edgeStyle=orthogonalEdgeStyle;rounded=0;orthogonalLoop=1;jettySize=auto;html=1;" parent="1" source="EwoiM0SO4o2tvxt3Q_M0-23" target="EwoiM0SO4o2tvxt3Q_M0-30" edge="1">
          <mxGeometry relative="1" as="geometry">
            <Array as="points">
              <mxPoint x="380" y="660" />
              <mxPoint x="690" y="660" />
            </Array>
          </mxGeometry>
        </mxCell>
        <mxCell id="EwoiM0SO4o2tvxt3Q_M0-23" value="Gestor atual de pedido do KDoQ Delivery" style="rounded=0;whiteSpace=wrap;html=1;opacity=20;fillColor=#1ba1e2;fontColor=#ffffff;strokeColor=#006EAF;" parent="1" vertex="1">
          <mxGeometry x="230" y="740" width="340" height="170" as="geometry" />
        </mxCell>
        <mxCell id="EwoiM0SO4o2tvxt3Q_M0-26" value="Postgres&lt;div&gt;ou&lt;br&gt;Sql Server&lt;/div&gt;" style="shape=cylinder3;whiteSpace=wrap;html=1;boundedLbl=1;backgroundOutline=1;size=15;" parent="1" vertex="1">
          <mxGeometry x="90" y="785" width="70" height="80" as="geometry" />
        </mxCell>
        <mxCell id="EwoiM0SO4o2tvxt3Q_M0-29" value="Usuário anônimo ou não (POSSIBILIDADE DE RETIRADA NO LOCAL DANDO APENAS O NOME)" style="text;html=1;align=center;verticalAlign=middle;whiteSpace=wrap;rounded=0;fontColor=#FFFF33;" parent="1" vertex="1">
          <mxGeometry x="410" y="317" width="190" height="30" as="geometry" />
        </mxCell>
        <mxCell id="0uHbyGpPH49AZoz-uMiK-2" value="" style="outlineConnect=0;dashed=0;verticalLabelPosition=bottom;verticalAlign=top;align=center;html=1;shape=mxgraph.aws3.sqs;fillColor=#D9A741;gradientColor=none;" vertex="1" parent="1">
          <mxGeometry x="660" y="370" width="76.5" height="93" as="geometry" />
        </mxCell>
        <mxCell id="0uHbyGpPH49AZoz-uMiK-3" value="" style="endArrow=none;dashed=1;html=1;rounded=0;" edge="1" parent="1">
          <mxGeometry width="50" height="50" relative="1" as="geometry">
            <mxPoint x="10" y="240" as="sourcePoint" />
            <mxPoint x="830" y="240" as="targetPoint" />
          </mxGeometry>
        </mxCell>
        <mxCell id="0uHbyGpPH49AZoz-uMiK-4" value="" style="endArrow=none;dashed=1;html=1;rounded=0;" edge="1" parent="1">
          <mxGeometry width="50" height="50" relative="1" as="geometry">
            <mxPoint x="10" y="630" as="sourcePoint" />
            <mxPoint x="830" y="630" as="targetPoint" />
          </mxGeometry>
        </mxCell>
      </root>
    </mxGraphModel>
  </diagram>
</mxfile>
